<svg height="256px" width="256px" version="1.1" id="Capa_1" xmlns="http://www.w3.org/2000/svg" xmlns:xlink="http://www.w3.org/1999/xlink" viewBox="0 0 492.78 492.78" xml:space="preserve" fill="#ffffff" stroke="#ffffff"><g id="SVGRepo_bgCarrier" stroke-width="0"></g><g id="SVGRepo_tracerCarrier" stroke-linecap="round" stroke-linejoin="round"></g><g id="SVGRepo_iconCarrier"> <g> <g> <path style="fill:#ffffff;" d="M490.15,177.813C490.15,79.611,410.539,0,312.337,0S134.525,79.611,134.525,177.813 c0,40.415,13.502,77.66,36.221,107.525L4.711,441.463c-6.292,6.235,3.089,23.467,9.38,29.702l10.356,10.258 c6.292,6.235,23.687,15.526,29.978,9.291l158.507-165.449c28.377,19.167,62.582,30.36,99.404,30.36 C410.539,355.625,490.15,276.014,490.15,177.813z M61.229,460.061c-7.039,6.974-18.46,6.974-25.507,0 c-7.039-6.974-7.039-18.289,0-25.272c7.047-6.974,18.46-6.974,25.507,0C68.269,441.772,68.269,453.087,61.229,460.061z M424.105,198.914c-2.609,3.869-5.576,7.446-8.86,10.689c-1.252,1.236-2.528,2.439-3.861,3.577l0.008,0.008 c-34.668,31.181-85.496,40.464-111.573,43.22c-4.812,0.723-9.706,1.097-14.688,1.105c-1.357,0.049-2.097,0.057-2.097,0.057 l0.171-0.106c-1.683-0.033-3.381-0.146-5.072-0.244c-3.357-0.195-6.73-0.496-10.136-1.073 c-17.143-2.91-32.433-10.006-45.04-19.899c-0.658-0.52-1.284-1.065-1.935-1.593c-5.308-4.389-10.104-9.267-14.29-14.591 c-4.958-6.3-9.047-13.176-12.209-20.468c-6.617-15.265-9.137-32.303-6.194-49.649c2.967-17.452,12.136-30.393,24.955-39.57 c4.268-3.056,8.925-5.682,13.924-7.901c4.316-1.918,8.82-3.593,13.567-4.918c20.338-5.698,44.057-6.113,66.711-2.268 c6.072,1.032,11.892,2.634,17.476,4.641l0.024-0.041c0,0,0.187,0.081,0.455,0.195c1,0.366,1.967,0.78,2.951,1.179 c7.08,2.699,24.264,8.397,41.74,7.747c0.171-0.008,0.276,0.016,0.439,0.008c5.129-0.268,10.348-0.033,15.623,0.862 c4.089,0.691,7.877,1.536,11.469,2.479c3.52,0.919,6.795,1.975,9.844,3.162c3.723,1.447,7.096,3.105,10.104,4.991 c15.704,9.811,21.76,25.759,17.46,51.08c-0.699,4.137-1.764,8.112-3.13,11.933C429.966,189.038,427.3,194.184,424.105,198.914z M312.337,57.916c35.571,0,67.483,15.664,89.455,40.35c-1.252-0.244-2.463-0.512-3.755-0.732c-1.91-0.325-3.796-0.439-5.69-0.61 c-3.17-0.285-6.316-0.382-9.437-0.285c-18.923-16.477-43.569-26.532-70.564-26.532c-14.453,0-28.231,2.902-40.83,8.088 c-5.471,0.146-10.876,0.569-16.192,1.236c-5.007,0.634-9.941,1.447-14.737,2.561C260.607,66.947,285.407,57.916,312.337,57.916z M312.337,297.709c-21.191,0-41.082-5.576-58.379-15.265c-7.877-4.414-15.152-9.738-21.809-15.753 c6.121,2.943,12.551,5.373,19.314,7.153c2.894,0.764,5.844,1.439,8.844,1.967c0.293,0.049,0.569,0.146,0.87,0.195 c3.162,0.536,6.316,0.87,9.454,1.089c12.835,5.414,26.93,8.413,41.716,8.413c34.628,0,65.402-16.493,85.114-41.96 c4.544-2.739,9.015-5.666,13.347-8.868c4.016-2.967,7.901-6.178,11.665-9.575C404.076,267.763,361.653,297.709,312.337,297.709z"></path> <path style="fill:#ffffff;" d="M387.868,154.841c-0.65-10.323-4.706-15.566-25.085-15.566l-2.211,0.016 c-0.658,0.008-1.325,0.024-1.983,0.041c-13.152,0.244-26.572,1.04-37.196,4.357c-10.437,3.251-18.119,8.966-20.175,18.972 c-0.219,1.057-0.431,2.13-0.52,3.284c-0.577,7.527,2.528,15.534,8.494,21.988c5.909,6.373,14.127,10.713,23.337,12.494 c3.089,0.602,6.3,0.91,9.567,0.91l0,0c7.283,0,14.867-1.471,22.5-4.365c4.194-1.561,25.264-9.958,28.556-21.833 c1.114-4.007,0.236-7.958-2.528-11.413C388.234,160.718,388.063,158.003,387.868,154.841z M382.975,172.318 c-1.366,4.942-13.981,11.721-22.093,14.761c-6.462,2.455-12.778,3.69-18.785,3.69l0,0c-0.098,0-0.195-0.024-0.293-0.024 c-9.957-0.073-19.013-3.69-24.857-9.998c-3.983-4.292-6.064-9.397-5.714-14.006c0.886-11.64,14.761-16.371,49.503-16.883 l2.048-0.016c1.772,0,3.325,0.024,4.69,0.073c9.519,0.333,9.616,1.878,9.852,5.584c0.244,3.894,0.577,9.21,5.056,14.818 C383.235,171.391,383.088,171.927,382.975,172.318z"></path> <path style="fill:#ffffff;" d="M368.319,158.784c-2.138-2.39-5.779-3.381-10.64-3.91c-3.056-0.333-6.186-0.504-9.226-0.504 c-6.454,0-18.005,0.788-22.858,6.064c-1.731,1.886-2.544,4.178-2.349,6.609c0.618,7.332,6.665,18.192,17.72,18.192 c1.626,0,3.292-0.244,4.576-0.634c0.902-0.187,1.829-0.415,2.756-0.634c9.234-2.219,19.062-6.202,19.297-13.168 c0.016-0.52,0.536-1.544,0.959-2.365c0.975-1.894,2.609-5.08,0.813-8.405C369.099,159.54,368.684,159.182,368.319,158.784z"></path> </g> </g> </g></svg>
